<?xml version="1.0" encoding="UTF-8" standalone="no"?>
<!-- Creator: CorelDRAW X7 -->

<svg
   xml:space="preserve"
   width="91.44mm"
   height="91.44mm"
   version="1.1"
   style="shape-rendering:geometricPrecision; text-rendering:geometricPrecision; image-rendering:optimizeQuality; fill-rule:evenodd; clip-rule:evenodd"
   viewBox="0 0 9144 9144"
   id="svg3"
   sodipodi:docname="logo-blanco.svg"
   inkscape:version="1.4 (86a8ad7, 2024-10-11)"
   xmlns:inkscape="http://www.inkscape.org/namespaces/inkscape"
   xmlns:sodipodi="http://sodipodi.sourceforge.net/DTD/sodipodi-0.dtd"
   xmlns="http://www.w3.org/2000/svg"
   xmlns:svg="http://www.w3.org/2000/svg"><sodipodi:namedview
   id="namedview3"
   pagecolor="#ffffff"
   bordercolor="#000000"
   borderopacity="0.25"
   inkscape:showpageshadow="2"
   inkscape:pageopacity="0.0"
   inkscape:pagecheckerboard="0"
   inkscape:deskcolor="#d1d1d1"
   inkscape:document-units="mm"
   inkscape:zoom="2.3582175"
   inkscape:cx="172.58798"
   inkscape:cy="172.8"
   inkscape:window-width="1920"
   inkscape:window-height="1017"
   inkscape:window-x="1912"
   inkscape:window-y="-8"
   inkscape:window-maximized="1"
   inkscape:current-layer="_384865656" />
 <defs
   id="defs1">
  <style
   type="text/css"
   id="style1">
   <![CDATA[
    .fil0 {fill:black}
    .fil1 {fill:white;fill-rule:nonzero}
   ]]>
  </style>
 </defs>
 <g
   id="Capa_x0020_1"
   inkscape:label="Capa 1">
  <metadata
   id="CorelCorpID_0Corel-Layer" />
  <rect
   class="fil0"
   width="9144"
   height="9144"
   id="rect1"
   style="fill:none" />
  <g
   id="_384865656">
   
   <g
   id="g3">
    <path
   class="fil1"
   d="M1595 3390c162,0 281,88 358,265l-265 290c-36,-37 -77,-56 -124,-56 -83,0 -169,71 -258,213 -73,117 -121,227 -143,328 -11,49 -16,92 -16,131 0,105 38,177 115,216 25,12 51,19 79,19 81,0 167,-61 256,-181l75 278c-154,172 -311,257 -471,257 -162,0 -281,-85 -356,-257 -45,-100 -68,-211 -68,-335 0,-90 12,-186 36,-288 46,-207 135,-397 267,-568 157,-208 329,-312 515,-312zm1016 -64c165,0 282,92 351,276 36,95 54,200 54,314 0,109 -17,228 -49,356 -58,218 -158,419 -300,603 -174,225 -357,338 -550,338 -167,0 -286,-92 -356,-276 -35,-91 -52,-193 -52,-305 0,-111 17,-231 52,-360 57,-221 157,-423 297,-607 173,-226 358,-339 553,-339zm-85 580c-86,0 -173,70 -262,211 -72,111 -122,219 -150,325 -14,57 -21,107 -21,153 0,63 15,116 46,157 36,45 86,68 151,68 87,0 166,-46 236,-139 56,-73 97,-160 122,-260 30,-117 36,-232 19,-346 -19,-113 -66,-169 -141,-169zm627 -395l405 -82c-3,48 -5,117 -5,206 0,213 7,399 21,560 8,92 20,167 36,222l159 -913 403 -75c-163,626 -269,1169 -319,1628l-370 103c-1,-3 -12,-30 -30,-82l-122 -346c-20,-57 -32,-93 -35,-108 -33,184 -59,363 -77,536l-375 113 309 -1762zm1091 0l405 -82c-3,48 -5,117 -5,206 0,213 7,399 21,560 8,92 20,167 36,222l159 -913 403 -75c-163,626 -269,1169 -319,1628l-370 103c-1,-3 -12,-30 -30,-82l-122 -346c-20,-57 -32,-93 -35,-108 -33,184 -59,363 -77,536l-375 113 309 -1762zm1374 342c-13,45 -23,90 -33,134l-26 129 375 -80 -21 324c-177,31 -316,58 -417,81 -6,32 -12,63 -16,94l-18 91 435 -63 -31 436c-225,18 -510,72 -854,161l278 -1679 780 -115 -31 436c-153,14 -293,31 -421,51zm1128 -463c162,0 281,88 358,265l-265 290c-36,-37 -77,-56 -124,-56 -83,0 -169,71 -258,213 -74,117 -121,227 -143,328 -11,49 -16,92 -16,131 0,105 38,177 115,216 24,12 51,19 79,19 81,0 167,-61 256,-181l75 278c-155,172 -312,257 -471,257 -162,0 -281,-85 -356,-257 -45,-100 -68,-211 -68,-335 0,-90 12,-186 35,-288 47,-207 136,-397 267,-568 158,-208 330,-312 516,-312zm1236 17l-14 435c-109,7 -213,14 -311,24 -103,432 -173,829 -209,1191l-396 103 216 -1246c-42,6 -84,14 -126,21l-125 24 -28 -437 993 -115z"
   id="path2"
   style="fill:#ffffff" />
    <path
   class="fil1"
   d="M8089 3396l0 -150 -57 0 0 -26 144 0 0 26 -58 0 0 150 -29 0zm107 0l0 -176 43 0 44 141 43 -141 43 0 0 176 -27 0 0 -148 -46 148 -26 0 -47 -150 0 150 -27 0z"
   id="path3" />
   </g>
  </g>
 </g>
</svg>
