<?xml version="1.0" encoding="UTF-8" standalone="no"?>
<!-- Creator: CorelDRAW X7 -->

<svg
   xml:space="preserve"
   width="87.720001mm"
   height="28.61075mm"
   version="1.1"
   style="clip-rule:evenodd;fill-rule:evenodd;image-rendering:optimizeQuality;shape-rendering:geometricPrecision;text-rendering:geometricPrecision"
   viewBox="0 0 8771.9999 2861.0749"
   id="svg3"
   xmlns="http://www.w3.org/2000/svg"
   xmlns:svg="http://www.w3.org/2000/svg">
 <defs
   id="defs1"><style
     type="text/css"
     id="style1">
   <![CDATA[
    .fil0 {fill:black}
    .fil1 {fill:white;fill-rule:nonzero}
   ]]>
  </style></defs>
 <g
   id="Capa_x0020_1"
   transform="translate(-371.99997,-3220)">
  <metadata
   id="CorelCorpID_0Corel-Layer" />
  
  <g
   id="_384865656"
   transform="matrix(1.0442857,0,0,1.0580898,-16.474289,-187.04919)">
   <path
   class="fil1"
   d="m 621,5919 h -77 l -46,-68 c -3,-5 -7,-10 -10,-14 -3,-4 -6,-8 -9,-11 -4,-2 -7,-5 -11,-6 -3,-2 -7,-3 -11,-3 h -18 v 102 h -67 v -266 h 106 c 72,0 108,24 108,72 0,10 -1,18 -5,26 -3,8 -7,15 -13,22 -6,6 -13,11 -21,16 -8,4 -17,8 -28,11 v 0 c 5,2 9,4 13,6 4,3 8,6 12,10 4,4 8,8 11,12 4,4 7,9 10,13 z M 439,5698 v 74 h 29 c 14,0 26,-4 34,-11 9,-8 14,-17 14,-28 0,-23 -16,-35 -47,-35 z m 554,226 c -42,0 -77,-12 -104,-37 -27,-25 -40,-57 -40,-97 0,-42 14,-76 41,-102 27,-26 63,-39 108,-39 42,0 77,12 103,37 26,25 39,58 39,98 0,42 -13,76 -41,102 -27,25 -62,38 -106,38 z m 3,-224 c -23,0 -42,8 -56,24 -14,16 -20,37 -20,63 0,26 6,47 20,62 14,16 32,23 54,23 24,0 42,-7 55,-22 14,-15 21,-36 21,-62 0,-28 -7,-49 -20,-65 -13,-15 -31,-23 -54,-23 z m 403,209 v -59 c 12,9 25,16 39,20 14,5 28,7 43,7 8,0 15,-1 22,-2 6,-2 11,-3 15,-6 5,-2 8,-5 10,-8 2,-4 3,-7 3,-11 0,-5 -2,-10 -5,-14 -3,-4 -8,-8 -14,-11 -5,-4 -12,-7 -20,-10 -8,-4 -16,-7 -25,-10 -24,-9 -41,-19 -52,-32 -12,-12 -17,-28 -17,-45 0,-14 3,-26 9,-36 6,-10 15,-18 25,-25 11,-6 23,-11 37,-14 14,-3 29,-4 45,-4 16,0 29,0 41,2 12,2 23,4 33,8 v 55 c -5,-3 -10,-5 -16,-8 -6,-2 -12,-4 -18,-6 -6,-1 -12,-2 -19,-3 -6,-1 -12,-1 -17,-1 -8,0 -15,0 -21,2 -6,1 -11,3 -16,5 -4,3 -7,5 -10,9 -2,3 -3,7 -3,11 0,4 1,8 4,12 2,3 6,7 11,10 5,3 11,6 18,9 7,3 14,6 23,9 12,5 23,10 32,15 10,5 18,10 24,17 7,6 12,13 16,21 4,8 5,18 5,29 0,14 -3,27 -9,37 -6,10 -15,18 -26,24 -10,7 -23,11 -37,14 -15,3 -30,4 -46,4 -16,0 -31,-1 -46,-4 -15,-2 -28,-6 -38,-11 z m 736,10 h -73 l -22,-59 h -105 l -21,59 h -73 l 108,-266 h 80 z m -110,-105 -32,-89 c -2,-7 -4,-15 -5,-24 h -1 c -1,7 -3,15 -6,23 l -32,90 z m 619,105 h -77 l -46,-68 c -4,-5 -7,-10 -10,-14 -3,-4 -7,-8 -10,-11 -3,-2 -7,-5 -10,-6 -4,-2 -7,-3 -12,-3 h -18 v 102 h -67 v -266 h 107 c 72,0 108,24 108,72 0,10 -2,18 -5,26 -3,8 -8,15 -13,22 -6,6 -13,11 -21,16 -9,4 -18,8 -28,11 v 0 c 4,2 9,4 13,6 4,3 8,6 12,10 4,4 7,8 11,12 4,4 7,9 10,13 z m -183,-221 v 74 h 29 c 15,0 26,-4 35,-11 9,-8 13,-17 13,-28 0,-23 -15,-35 -46,-35 z m 500,221 h -67 v -266 h 67 z m 416,5 c -42,0 -77,-12 -104,-37 -27,-25 -40,-57 -40,-97 0,-42 14,-76 41,-102 27,-26 63,-39 108,-39 43,0 77,12 103,37 26,25 39,58 39,98 0,42 -13,76 -40,102 -28,25 -63,38 -107,38 z m 3,-224 c -23,0 -42,8 -56,24 -14,16 -20,37 -20,63 0,26 6,47 20,62 14,16 32,23 55,23 23,0 41,-7 55,-22 13,-15 20,-36 20,-62 0,-28 -7,-49 -20,-65 -13,-15 -31,-23 -54,-23 z m 795,219 h -73 l -21,-59 h -106 l -21,59 h -72 l 108,-266 h 79 z m -110,-105 -31,-89 c -3,-7 -4,-15 -5,-24 h -2 c -1,7 -3,15 -5,23 l -33,90 z m 577,96 c -21,9 -50,14 -85,14 -45,0 -81,-12 -107,-36 -26,-24 -39,-56 -39,-96 0,-43 14,-77 44,-104 29,-26 67,-39 114,-39 29,0 53,3 73,9 v 58 c -20,-10 -42,-16 -68,-16 -28,0 -50,8 -67,24 -17,16 -26,37 -26,64 0,25 8,46 24,61 16,16 38,23 66,23 26,0 50,-5 71,-17 z m 477,0 c -22,9 -50,14 -85,14 -46,0 -82,-12 -108,-36 -26,-24 -39,-56 -39,-96 0,-43 15,-77 44,-104 29,-26 67,-39 114,-39 29,0 54,3 74,9 v 58 c -20,-10 -43,-16 -68,-16 -28,0 -51,8 -68,24 -17,16 -26,37 -26,64 0,25 8,46 25,61 16,16 38,23 65,23 26,0 50,-5 72,-17 z m 452,9 h -178 v -266 h 172 v 49 h -105 v 59 h 97 v 49 h -97 v 61 h 111 z m 257,-10 v -59 c 12,9 25,16 39,20 15,5 29,7 43,7 9,0 16,-1 22,-2 6,-2 12,-3 16,-6 4,-2 7,-5 9,-8 3,-4 3,-7 3,-11 0,-5 -1,-10 -4,-14 -4,-4 -8,-8 -14,-11 -6,-4 -13,-7 -20,-10 -8,-4 -17,-7 -26,-10 -23,-9 -40,-19 -52,-32 -11,-12 -17,-28 -17,-45 0,-14 3,-26 9,-36 7,-10 15,-18 26,-25 10,-6 23,-11 37,-14 14,-3 29,-4 45,-4 15,0 29,0 41,2 12,2 23,4 33,8 v 55 c -5,-3 -10,-5 -16,-8 -6,-2 -12,-4 -19,-6 -6,-1 -12,-2 -18,-3 -6,-1 -12,-1 -18,-1 -7,0 -14,0 -20,2 -6,1 -12,3 -16,5 -4,3 -8,5 -10,9 -2,3 -3,7 -3,11 0,4 1,8 3,12 3,3 7,7 12,10 4,3 10,6 17,9 7,3 15,6 24,9 12,5 22,10 32,15 9,5 17,10 24,17 7,6 12,13 16,21 3,8 5,18 5,29 0,14 -3,27 -9,37 -7,10 -15,18 -26,24 -11,7 -23,11 -38,14 -14,3 -29,4 -45,4 -16,0 -32,-1 -46,-4 -15,-2 -28,-6 -39,-11 z m 600,15 c -42,0 -77,-12 -104,-37 -27,-25 -40,-57 -40,-97 0,-42 14,-76 41,-102 27,-26 63,-39 108,-39 43,0 77,12 103,37 26,25 39,58 39,98 0,42 -13,76 -41,102 -27,25 -62,38 -106,38 z m 3,-224 c -23,0 -42,8 -56,24 -14,16 -20,37 -20,63 0,26 6,47 20,62 14,16 32,23 55,23 23,0 41,-7 54,-22 14,-15 21,-36 21,-62 0,-28 -7,-49 -20,-65 -13,-15 -31,-23 -54,-23 z m 666,219 h -77 l -46,-68 c -4,-5 -7,-10 -10,-14 -3,-4 -7,-8 -10,-11 -3,-2 -7,-5 -10,-6 -4,-2 -7,-3 -12,-3 h -18 v 102 h -67 v -266 h 107 c 72,0 108,24 108,72 0,10 -2,18 -5,26 -3,8 -8,15 -14,22 -5,6 -12,11 -21,16 -8,4 -17,8 -27,11 v 0 c 4,2 9,4 13,6 4,3 8,6 12,10 4,4 7,8 11,12 4,4 7,9 10,13 z m -183,-221 v 74 h 29 c 15,0 26,-4 35,-11 9,-8 13,-17 13,-28 0,-23 -15,-35 -46,-35 z m 500,221 h -67 v -266 h 67 z m 416,5 c -42,0 -77,-12 -104,-37 -27,-25 -40,-57 -40,-97 0,-42 14,-76 41,-102 27,-26 63,-39 108,-39 42,0 77,12 103,37 26,25 39,58 39,98 0,42 -13,76 -41,102 -27,25 -62,38 -106,38 z m 3,-224 c -23,0 -42,8 -56,24 -14,16 -20,37 -20,63 0,26 6,47 20,62 14,16 32,23 55,23 23,0 41,-7 54,-22 14,-15 21,-36 21,-62 0,-28 -7,-49 -20,-65 -13,-15 -31,-23 -54,-23 z m 403,209 v -59 c 12,9 25,16 39,20 14,5 28,7 43,7 8,0 15,-1 22,-2 6,-2 11,-3 15,-6 5,-2 8,-5 10,-8 2,-4 3,-7 3,-11 0,-5 -2,-10 -5,-14 -3,-4 -8,-8 -14,-11 -5,-4 -12,-7 -20,-10 -8,-4 -16,-7 -25,-10 -24,-9 -41,-19 -52,-32 -12,-12 -17,-28 -17,-45 0,-14 3,-26 9,-36 6,-10 15,-18 25,-25 11,-6 23,-11 37,-14 14,-3 29,-4 45,-4 16,0 29,0 41,2 12,2 23,4 33,8 v 55 c -5,-3 -10,-5 -16,-8 -6,-2 -12,-4 -18,-6 -6,-1 -12,-2 -19,-3 -6,-1 -12,-1 -17,-1 -8,0 -15,0 -21,2 -6,1 -11,3 -16,5 -4,3 -7,5 -10,9 -2,3 -3,7 -3,11 0,4 1,8 4,12 3,3 6,7 11,10 5,3 11,6 18,9 7,3 14,6 23,9 12,5 23,10 32,15 10,5 18,10 24,17 7,6 12,13 16,21 4,8 5,18 5,29 0,14 -3,27 -9,37 -6,10 -15,18 -26,24 -10,7 -23,11 -37,14 -15,3 -30,4 -46,4 -16,0 -31,-1 -46,-4 -15,-2 -27,-6 -38,-11 z m 497,15 c -11,0 -20,-3 -27,-9 -7,-6 -11,-13 -11,-22 0,-9 4,-16 11,-22 8,-5 17,-8 28,-8 11,0 20,3 28,8 7,6 10,13 10,22 0,9 -3,17 -11,22 -7,6 -16,9 -28,9 z"
   id="path1" />
   <g
   id="g3">
    <path
   class="fil1"
   d="m 1595,3390 c 162,0 281,88 358,265 l -265,290 c -36,-37 -77,-56 -124,-56 -83,0 -169,71 -258,213 -73,117 -121,227 -143,328 -11,49 -16,92 -16,131 0,105 38,177 115,216 25,12 51,19 79,19 81,0 167,-61 256,-181 l 75,278 c -154,172 -311,257 -471,257 -162,0 -281,-85 -356,-257 -45,-100 -68,-211 -68,-335 0,-90 12,-186 36,-288 46,-207 135,-397 267,-568 157,-208 329,-312 515,-312 z m 1016,-64 c 165,0 282,92 351,276 36,95 54,200 54,314 0,109 -17,228 -49,356 -58,218 -158,419 -300,603 -174,225 -357,338 -550,338 -167,0 -286,-92 -356,-276 -35,-91 -52,-193 -52,-305 0,-111 17,-231 52,-360 57,-221 157,-423 297,-607 173,-226 358,-339 553,-339 z m -85,580 c -86,0 -173,70 -262,211 -72,111 -122,219 -150,325 -14,57 -21,107 -21,153 0,63 15,116 46,157 36,45 86,68 151,68 87,0 166,-46 236,-139 56,-73 97,-160 122,-260 30,-117 36,-232 19,-346 -19,-113 -66,-169 -141,-169 z m 627,-395 405,-82 c -3,48 -5,117 -5,206 0,213 7,399 21,560 8,92 20,167 36,222 l 159,-913 403,-75 c -163,626 -269,1169 -319,1628 l -370,103 c -1,-3 -12,-30 -30,-82 l -122,-346 c -20,-57 -32,-93 -35,-108 -33,184 -59,363 -77,536 l -375,113 z m 1091,0 405,-82 c -3,48 -5,117 -5,206 0,213 7,399 21,560 8,92 20,167 36,222 l 159,-913 403,-75 c -163,626 -269,1169 -319,1628 l -370,103 c -1,-3 -12,-30 -30,-82 l -122,-346 c -20,-57 -32,-93 -35,-108 -33,184 -59,363 -77,536 l -375,113 z m 1374,342 c -13,45 -23,90 -33,134 l -26,129 375,-80 -21,324 c -177,31 -316,58 -417,81 -6,32 -12,63 -16,94 l -18,91 435,-63 -31,436 c -225,18 -510,72 -854,161 l 278,-1679 780,-115 -31,436 c -153,14 -293,31 -421,51 z m 1128,-463 c 162,0 281,88 358,265 l -265,290 c -36,-37 -77,-56 -124,-56 -83,0 -169,71 -258,213 -74,117 -121,227 -143,328 -11,49 -16,92 -16,131 0,105 38,177 115,216 24,12 51,19 79,19 81,0 167,-61 256,-181 l 75,278 c -155,172 -312,257 -471,257 -162,0 -281,-85 -356,-257 -45,-100 -68,-211 -68,-335 0,-90 12,-186 35,-288 47,-207 136,-397 267,-568 158,-208 330,-312 516,-312 z m 1236,17 -14,435 c -109,7 -213,14 -311,24 -103,432 -173,829 -209,1191 l -396,103 216,-1246 c -42,6 -84,14 -126,21 l -125,24 -28,-437 z"
   id="path2" />
    <path
   class="fil1"
   d="m 8089,3396 v -150 h -57 v -26 h 144 v 26 h -58 v 150 z m 107,0 v -176 h 43 l 44,141 43,-141 h 43 v 176 h -27 v -148 l -46,148 h -26 l -47,-150 v 150 z"
   id="path3" />
   </g>
  </g>
 </g>
</svg>
